<?xml version="1.0" encoding="UTF-8"?>
<svg version="1.1" xmlns="http://www.w3.org/2000/svg" width="190" height="190">
<path d="M0 0 C0.82975342 -0.0049649 1.65950684 -0.00992981 2.5144043 -0.01504517 C5.25586785 -0.02963499 7.99727356 -0.03646308 10.73876953 -0.04199219 C12.64682008 -0.04774574 14.55487062 -0.05350345 16.46292114 -0.05926514 C20.46258818 -0.06976571 24.46223518 -0.07561473 28.46191406 -0.07910156 C33.58206559 -0.08458787 38.7019514 -0.10862284 43.82201958 -0.13707352 C47.76316092 -0.15571326 51.70423838 -0.16090619 55.64542007 -0.16243744 C57.53283264 -0.16546088 59.42024416 -0.17347898 61.30761337 -0.18662262 C63.95007213 -0.20371296 66.59188311 -0.20179577 69.234375 -0.1953125 C70.01068268 -0.20452728 70.78699036 -0.21374207 71.58682251 -0.22323608 C76.3926253 -0.18637502 79.66825102 0.61038347 83.74658203 3.16113281 C88.7816802 8.60448219 88.89863088 13.09167918 88.90771484 20.23486328 C88.9151622 21.62798737 88.9151622 21.62798737 88.92276001 23.04925537 C88.93738051 26.12561785 88.94418316 29.20192878 88.94970703 32.27832031 C88.9554582 34.41439821 88.96121594 36.55047609 88.96697998 38.68655396 C88.97748939 43.16717774 88.98333258 47.64778359 88.98681641 52.12841797 C88.99230357 57.87084079 89.01633673 63.61302679 89.04478836 69.35537529 C89.0634072 73.76828709 89.06861992 78.18114174 89.07015228 82.59408951 C89.07318061 84.7111961 89.08121517 86.82830163 89.09433746 88.94536972 C89.11138336 91.9066346 89.10952127 94.86731931 89.10302734 97.82861328 C89.11224213 98.70359467 89.12145691 99.57857605 89.13095093 100.48007202 C89.09837369 105.2199711 88.7930043 108.29765869 85.74658203 112.16113281 C80.36422722 117.39801858 74.91932475 117.28581754 67.6940918 117.29052734 C67.01505295 117.29227966 66.3360141 117.29403198 65.63639832 117.2958374 C63.4035685 117.30021754 61.17081883 117.2973285 58.93798828 117.29394531 C57.3682402 117.29462015 55.79849223 117.29559168 54.22874451 117.29684448 C50.93788661 117.29831687 47.6470559 117.29618426 44.35620117 117.29150391 C40.18097253 117.28584929 36.0058088 117.28906124 31.83058262 117.29507637 C28.58478834 117.29873082 25.33900882 117.29752055 22.09321404 117.29494858 C20.55655853 117.29429051 19.01990159 117.2950676 17.48324776 117.29742813 C12.56959409 117.30331324 7.65918635 117.26466564 2.74658203 117.16113281 C2.05526562 117.14792747 1.3639492 117.13472214 0.65168381 117.12111664 C-1.38087335 117.07157298 -3.41001446 116.99242481 -5.44116211 116.90283203 C-6.61030655 116.85762421 -7.77945099 116.81241638 -8.98402405 116.76583862 C-12.93456719 116.03514772 -15.15385514 114.69160345 -18.25341797 112.16113281 C-19.9731187 109.35979305 -20.50470261 107.25991395 -20.51411438 103.99330139 C-20.52119919 103.17044144 -20.528284 102.34758148 -20.5355835 101.49978638 C-20.53310608 100.60565033 -20.53062866 99.71151428 -20.52807617 98.7902832 C-20.5331871 97.84188065 -20.53829803 96.89347809 -20.54356384 95.91633606 C-20.55746703 92.78042292 -20.55650254 89.64472937 -20.55419922 86.50878906 C-20.55808567 84.32929909 -20.56242024 82.14980988 -20.56718445 79.97032166 C-20.57464817 75.4014948 -20.5743542 70.83274522 -20.5690918 66.26391602 C-20.56329625 60.40828152 -20.58022965 54.55296323 -20.60343647 48.69738102 C-20.618166 44.19610239 -20.61904658 39.69490006 -20.61592674 35.19360161 C-20.61644032 33.03463553 -20.6216849 30.87566522 -20.63173866 28.71672249 C-20.64407074 25.69806473 -20.63733061 22.68002477 -20.62573242 19.66137695 C-20.63337616 18.76926514 -20.6410199 17.87715332 -20.64889526 16.95800781 C-20.60837118 12.18777358 -20.33930652 9.03841566 -17.25341797 5.16113281 C-11.74144918 0.07316163 -7.2622851 0.01040321 0 0 Z " fill="#0B3C6B" transform="translate(61.25341796875,64.8388671875)"/>
<path d="M0 0 C3.79423661 1.47325022 5.1368276 3.35420556 7.1875 6.8125 C9.97197968 11.3766254 12.87800351 15.80599139 15.9375 20.1875 C16.33928467 20.76411377 16.74106934 21.34072754 17.1550293 21.93481445 C18.10157852 23.29111633 19.05051774 24.64574979 20 26 C23.63195496 24.78934835 24.42896192 23.46308874 26.6875 20.4375 C27.62142578 19.19806641 27.62142578 19.19806641 28.57421875 17.93359375 C29.27998047 16.97646484 29.27998047 16.97646484 30 16 C33.18646613 17.37357341 34.97612262 18.84815416 37.12890625 21.5546875 C37.68900391 22.25207031 38.24910156 22.94945313 38.82617188 23.66796875 C39.39916016 24.39628906 39.97214844 25.12460937 40.5625 25.875 C41.13935547 26.59558594 41.71621094 27.31617187 42.31054688 28.05859375 C43.88496988 30.03070837 45.4509916 32.00786666 47 34 C47.55679443 34.69754395 48.11358887 35.39508789 48.68725586 36.11376953 C50 38 50 38 50 40 C50.66 40 51.32 40 52 40 C53.5078125 41.96875 53.5078125 41.96875 55.125 44.5 C55.66382813 45.3353125 56.20265625 46.170625 56.7578125 47.03125 C57.16773438 47.6809375 57.57765625 48.330625 58 49 C57.505 49.99 57.505 49.99 57 51 C54.03 51 51.06 51 48 51 C48 50.34 48 49.68 48 49 C47.34 49 46.68 49 46 49 C46 48.34 46 47.68 46 47 C45.34 47 44.68 47 44 47 C42.66796875 45.2421875 42.66796875 45.2421875 41.1875 42.875 C39.3063491 39.94003483 37.4148628 37.19160173 35.125 34.5625 C33 32 33 32 33 30 C31.03243548 30.03122943 31.03243548 30.03122943 29 31 C27.50427537 33.70844933 27.50427537 33.70844933 27 37 C28.26641342 39.98213604 28.26641342 39.98213604 30.375 42.6875 C34 47.74710425 34 47.74710425 34 51 C28.602889 52.21870248 28.602889 52.21870248 25 51 C21.49537985 47.24392729 18.80537257 43.12521941 16.10302734 38.76953125 C14.67932329 36.48555449 13.15215667 34.27822353 11.625 32.0625 C9.92403605 29.48470111 8.32813898 26.87818493 6.8125 24.1875 C5.3411052 21.59987466 3.96433649 19.23220056 2 17 C1.34 17 0.68 17 0 17 C-1.06853502 18.62357959 -2.05470309 20.30170923 -3 22 C-5.21865964 25.70997567 -7.47608732 29.39064577 -9.78173828 33.046875 C-10.63317715 34.41190725 -11.47169917 35.78504346 -12.30029297 37.1640625 C-13.6489686 39.40065279 -15.03884054 41.60690269 -16.4375 43.8125 C-16.85515625 44.52446533 -17.2728125 45.23643066 -17.703125 45.9699707 C-19.01924187 47.99260576 -20.09870034 49.50841941 -22 51 C-25.09309262 51.58240295 -27.8953309 51.44242496 -31 51 C-30.65572952 47.32778152 -29.4496816 45.00122001 -27.4375 42 C-25.37063157 38.86406169 -24.39789324 36.85348327 -25 33 C-26.65 32.34 -28.3 31.68 -30 31 C-30.33 31.66 -30.66 32.32 -31 33 C-31.66 33 -32.32 33 -33 33 C-33.2371875 33.70769531 -33.474375 34.41539063 -33.71875 35.14453125 C-35.21925012 38.48863366 -37.14423962 40.88429812 -39.5 43.6875 C-40.2940625 44.64011719 -41.088125 45.59273437 -41.90625 46.57421875 C-44 49 -44 49 -46 51 C-49.5 51.25 -49.5 51.25 -53 51 C-53.66 50.34 -54.32 49.68 -55 49 C-48.44560972 39.75871681 -41.48749775 30.84621014 -34.4987793 21.93188477 C-32.97714619 19.97054207 -31.48403924 17.98989245 -30 16 C-26.21919607 17.26026798 -25.22704575 18.93546534 -22.8125 22.0625 C-21.73935547 23.44115234 -21.73935547 23.44115234 -20.64453125 24.84765625 C-20.10183594 25.55792969 -19.55914062 26.26820312 -19 27 C-15.7044465 23.02550145 -12.83338787 18.86839096 -10 14.5625 C-9.57460937 13.91990234 -9.14921875 13.27730469 -8.7109375 12.61523438 C-7.08180417 10.15404368 -5.4551262 7.69125145 -3.83203125 5.22607422 C-1.11026982 1.11026982 -1.11026982 1.11026982 0 0 Z " fill="#164370" transform="translate(94,8)"/>
<path d="M0 0 C0.76761154 -0.00175232 1.53522308 -0.00350464 2.32609558 -0.00531006 C4.87041466 -0.00972119 7.41466456 -0.00679317 9.95898438 -0.00341797 C11.72253432 -0.00409122 13.48608417 -0.00506142 15.24963379 -0.00631714 C18.9484953 -0.00779311 22.64733269 -0.00564277 26.34619141 -0.00097656 C31.09452484 0.00472066 35.84280176 0.00144112 40.59113312 -0.00454903 C44.2335859 -0.00815735 47.87602521 -0.0070148 51.51847839 -0.00442123 C53.26962796 -0.00375272 55.02077873 -0.00457778 56.77192688 -0.00690079 C59.21647393 -0.00943173 61.66092861 -0.00558045 64.10546875 0 C64.83384445 -0.00202423 65.56222015 -0.00404846 66.31266785 -0.00613403 C71.32420551 0.0151301 71.32420551 0.0151301 73.55273438 1.12939453 C73.55273438 6.73939453 73.55273438 12.34939453 73.55273438 18.12939453 C70.50726812 19.65212766 67.33840036 19.26793577 63.99780273 19.25878906 C63.21883133 19.26054138 62.43985992 19.2622937 61.63728333 19.26409912 C59.05569244 19.26850993 56.47416974 19.26558263 53.89257812 19.26220703 C52.10421231 19.26288022 50.31584658 19.26385038 48.52748108 19.2651062 C44.77734507 19.26658207 41.02723286 19.2644319 37.27709961 19.25976562 C32.45916574 19.25406429 27.64128751 19.2573506 22.82335567 19.26333809 C19.13033119 19.26694318 15.43732 19.26580543 11.74429512 19.2632103 C9.96719926 19.26254109 8.19010221 19.26336921 6.41300774 19.26568985 C3.93472953 19.26821596 1.45654284 19.26437658 -1.02172852 19.25878906 C-2.13371109 19.26182541 -2.13371109 19.26182541 -3.26815796 19.2649231 C-8.33300212 19.24365803 -8.33300212 19.24365803 -9.44726562 18.12939453 C-9.52051731 15.26671886 -9.53964768 12.42867554 -9.50976562 9.56689453 C-9.50525391 8.76058594 -9.50074219 7.95427734 -9.49609375 7.12353516 C-9.4842708 5.12545697 -9.46633477 3.1274167 -9.44726562 1.12939453 C-6.42830767 -0.38008444 -3.31084839 -0.00920119 0 0 Z " fill="#EFF4F5" transform="translate(63.447265625,104.87060546875)"/>
<path d="M0 0 C0.71902496 0.00561951 1.43804993 0.01123901 2.17886353 0.01702881 C2.9367215 0.01513046 3.69457947 0.01323212 4.47540283 0.01127625 C6.98733781 0.00756332 9.49898538 0.01827996 12.01089478 0.02947998 C13.75202399 0.03067162 15.49315385 0.03112498 17.23428345 0.03086853 C20.88609838 0.03243429 24.53781541 0.04073095 28.18960571 0.05413818 C32.87741229 0.07112815 37.56511118 0.07495257 42.25294495 0.074193 C45.84908075 0.07446456 49.44519286 0.07994351 53.0413208 0.08719444 C54.77013978 0.09038315 56.49896144 0.09234899 58.2277832 0.09308815 C60.64121091 0.09524958 63.05452304 0.10398954 65.46792603 0.11468506 C66.18695099 0.11423187 66.90597595 0.11377869 67.64678955 0.11331177 C72.59443916 0.14547092 72.59443916 0.14547092 74.82339478 1.25994873 C74.8502379 4.07251154 74.87015665 6.88482114 74.88589478 9.69744873 C74.89427368 10.49989014 74.90265259 11.30233154 74.9112854 12.12908936 C74.91990908 14.17290094 74.87567627 16.21678775 74.82339478 18.25994873 C73.12042956 19.96291395 70.98017963 19.39197193 68.70774841 19.40658569 C67.60979195 19.40590591 67.60979195 19.40590591 66.48965454 19.4052124 C65.72218903 19.40857101 64.95472351 19.41192963 64.16400146 19.41539001 C61.61425175 19.42492815 59.0645675 19.42684455 56.51480103 19.42791748 C54.7498217 19.43112807 52.98484265 19.43449199 51.21986389 19.43800354 C47.51502871 19.44400198 43.81021689 19.44584271 40.1053772 19.44525146 C35.34912603 19.4451498 30.593024 19.45880318 25.8368082 19.47602367 C22.19006151 19.48712144 18.54335113 19.48917136 14.89658928 19.48864174 C13.14264347 19.48982518 11.38869681 19.49426717 9.63476753 19.50197411 C7.18524747 19.51172936 4.73605444 19.50891381 2.28652954 19.50286865 C1.55658279 19.50848816 0.82663605 19.51410767 0.0745697 19.51989746 C-4.94828956 19.4882644 -4.94828956 19.4882644 -7.17660522 17.25994873 C-7.37509593 14.71459732 -7.45512297 12.30278114 -7.42660522 9.75994873 C-7.4343396 9.07030029 -7.44207397 8.38065186 -7.45004272 7.67010498 C-7.42559603 1.39952905 -6.28448792 0.04017327 0 0 Z " fill="#EEF2F4" transform="translate(61.176605224609375,77.74005126953125)"/>
<path d="M0 0 C3.5 0.125 3.5 0.125 4.5 1.125 C4.54080783 3.12458364 4.54254356 5.12545254 4.5 7.125 C1.125 7.75 1.125 7.75 -2.5 8.125 C-4.5 6.125 -4.5 6.125 -4.6875 3.5625 C-4.39142929 -0.28641921 -4.01801965 0.1435007 0 0 Z " fill="#0A3C6C" transform="translate(123.5,83.875)"/>
<path d="M0 0 C3.5 0.125 3.5 0.125 4.5 1.125 C4.625 3.625 4.625 3.625 4.5 6.125 C3.5 7.125 3.5 7.125 0 7.25 C-3.5 7.125 -3.5 7.125 -4.5 6.125 C-4.625 3.625 -4.625 3.625 -4.5 1.125 C-3.5 0.125 -3.5 0.125 0 0 Z " fill="#1E4B77" transform="translate(123.5,110.875)"/>
<path d="M0 0 C-1.36944102 2.94956528 -2.87830409 5.52468811 -5 8 C-5.66 8 -6.32 8 -7 8 C-6.44414399 4.1090079 -4.34122117 0 0 0 Z " fill="#214972" transform="translate(49,67)"/>
<path d="M0 0 C0.66 0 1.32 0 2 0 C2 0.66 2 1.32 2 2 C3.98 2 5.96 2 8 2 C8 2.66 8 3.32 8 4 C4.625 4.125 4.625 4.125 1 4 C0.34 3.34 -0.32 2.68 -1 2 C-0.67 1.34 -0.34 0.68 0 0 Z " fill="#305577" transform="translate(40,55)"/>
<path d="M0 0 C0.66 0.33 1.32 0.66 2 1 C-0.625 5.875 -0.625 5.875 -4 7 C-2.92598892 4.08482708 -2.22189824 2.22189824 0 0 Z " fill="#375B82" transform="translate(94,8)"/>
</svg>
